<svg xmlns="http://www.w3.org/2000/svg" viewBox="0 0 1128 540" width="1128" height="540" role="img" aria-label="Kaavio suunnitelman kolmesta osasta: perustiedot, opiskelijan omat päätökset ja ohjaajan päätökset."><title>Kaavio suunnitelman kolmesta osasta: perustiedot, opiskelijan omat päätökset ja ohjaajan päätökset.</title><rect x="0" y="0" width="1128" height="540" fill="#26323b" /><text x="564" y="70" font-family="Inter,'Segoe UI',system-ui,sans-serif" font-size="26" font-weight="800" fill="#b0bec5" text-anchor="middle" letter-spacing="0.2em">SUUNNITELMA SYNTYY ENNEN TOTEUTUSTA</text><rect x="70" y="120" width="302.667" height="340" fill="#f6f7f4" rx="10" /><rect x="70" y="120" width="302.667" height="54" fill="#3c4d5a" rx="10" /><rect x="70" y="160" width="302.667" height="14" fill="#3c4d5a" /><text x="221.333" y="155" font-family="Inter,'Segoe UI',system-ui,sans-serif" font-size="23" font-weight="800" fill="#eceff1" text-anchor="middle" letter-spacing="0.02em">Tavoite ja rajaus</text><rect x="100" y="210" width="242.667" height="6" fill="#c9d2cb" rx="3" /><rect x="100" y="236" width="242.667" height="6" fill="#c9d2cb" rx="3" /><rect x="100" y="262" width="242.667" height="6" fill="#c9d2cb" rx="3" /><rect x="100" y="288" width="242.667" height="6" fill="#c9d2cb" rx="3" /><rect x="100" y="314" width="242.667" height="6" fill="#c9d2cb" rx="3" /><rect x="100" y="340" width="242.667" height="6" fill="#c9d2cb" rx="3" /><rect x="100" y="366" width="133.467" height="6" fill="#c9d2cb" rx="3" /><rect x="100" y="410" width="90" height="26" fill="#0e7490" rx="13" /><text x="145" y="429" font-family="Inter,'Segoe UI',system-ui,sans-serif" font-size="17" font-weight="800" fill="#ffffff" text-anchor="middle" letter-spacing="0.02em">OMA</text><rect x="412.667" y="120" width="302.667" height="340" fill="#f6f7f4" rx="10" /><rect x="412.667" y="120" width="302.667" height="54" fill="#3c4d5a" rx="10" /><rect x="412.667" y="160" width="302.667" height="14" fill="#3c4d5a" /><text x="564" y="155" font-family="Inter,'Segoe UI',system-ui,sans-serif" font-size="23" font-weight="800" fill="#eceff1" text-anchor="middle" letter-spacing="0.02em">Omat päätökset</text><rect x="442.667" y="210" width="242.667" height="6" fill="#c9d2cb" rx="3" /><rect x="442.667" y="236" width="242.667" height="6" fill="#c9d2cb" rx="3" /><rect x="442.667" y="262" width="242.667" height="6" fill="#c9d2cb" rx="3" /><rect x="442.667" y="288" width="242.667" height="6" fill="#c9d2cb" rx="3" /><rect x="442.667" y="314" width="242.667" height="6" fill="#c9d2cb" rx="3" /><rect x="442.667" y="340" width="242.667" height="6" fill="#c9d2cb" rx="3" /><rect x="442.667" y="366" width="133.467" height="6" fill="#c9d2cb" rx="3" /><rect x="442.667" y="410" width="90" height="26" fill="#0e7490" rx="13" /><text x="487.667" y="429" font-family="Inter,'Segoe UI',system-ui,sans-serif" font-size="17" font-weight="800" fill="#ffffff" text-anchor="middle" letter-spacing="0.02em">OMA</text><rect x="755.333" y="120" width="302.667" height="340" fill="#f6f7f4" rx="10" /><rect x="755.333" y="120" width="302.667" height="54" fill="#3c4d5a" rx="10" /><rect x="755.333" y="160" width="302.667" height="14" fill="#3c4d5a" /><text x="906.667" y="155" font-family="Inter,'Segoe UI',system-ui,sans-serif" font-size="23" font-weight="800" fill="#eceff1" text-anchor="middle" letter-spacing="0.02em">Tietomalli</text><rect x="785.333" y="210" width="242.667" height="6" fill="#c9d2cb" rx="3" /><rect x="785.333" y="236" width="242.667" height="6" fill="#c9d2cb" rx="3" /><rect x="785.333" y="262" width="242.667" height="6" fill="#c9d2cb" rx="3" /><rect x="785.333" y="288" width="242.667" height="6" fill="#c9d2cb" rx="3" /><rect x="785.333" y="314" width="242.667" height="6" fill="#c9d2cb" rx="3" /><rect x="785.333" y="340" width="242.667" height="6" fill="#c9d2cb" rx="3" /><rect x="785.333" y="366" width="133.467" height="6" fill="#c9d2cb" rx="3" /><rect x="785.333" y="410" width="90" height="26" fill="#0e7490" rx="13" /><text x="830.333" y="429" font-family="Inter,'Segoe UI',system-ui,sans-serif" font-size="17" font-weight="800" fill="#ffffff" text-anchor="middle" letter-spacing="0.02em">OMA</text></svg>